<svg width="18" height="20" viewBox="0 0 18 20" fill="none" xmlns="http://www.w3.org/2000/svg">
<path fill-rule="evenodd" clip-rule="evenodd" d="M8.75 0C11.9697 0 14.6581 2.45511 14.9496 5.66156L15.3961 10.5726C15.4352 11.0037 15.6947 11.3838 16.0819 11.5774L16.0854 11.5792C16.9524 12.0127 17.5 12.8988 17.5 13.868V14.25C17.5 15.4926 16.4926 16.5 15.25 16.5H11.5V17C11.5 18.5188 10.2688 19.75 8.75 19.75C7.23122 19.75 6 18.5188 6 17V16.5H2.25C1.00736 16.5 0 15.4926 0 14.25V13.868C0 12.8988 0.547636 12.0127 1.41459 11.5792L1.4181 11.5774C1.80529 11.3838 2.06475 11.0037 2.10395 10.5726L2.5504 5.66156C2.8419 2.45511 5.53032 0 8.75 0ZM7.5 16.5V17C7.5 17.6904 8.05964 18.25 8.75 18.25C9.44036 18.25 10 17.6904 10 17V16.5H7.5ZM8.75 1.5C6.30613 1.5 4.2655 3.36353 4.04424 5.79737L3.59779 10.7084C3.51156 11.6568 2.94074 12.4932 2.08892 12.9191C1.72663 13.1002 1.5 13.4669 1.5 13.868V14.25C1.5 14.6642 1.83579 15 2.25 15H15.25C15.6642 15 16 14.6642 16 14.25V13.868C16 13.4669 15.7734 13.1002 15.4146 12.9208C14.5593 12.4932 13.9884 11.6568 13.9022 10.7084L13.4558 5.79737C13.2345 3.36353 11.1939 1.5 8.75 1.5Z" fill="#141124"/>
</svg>
