<svg width="21" height="22" viewBox="0 0 21 22" fill="none" xmlns="http://www.w3.org/2000/svg">
<circle cx="5" cy="5" r="4.5" stroke="black"/>
<path fill-rule="evenodd" clip-rule="evenodd" d="M8.876 8C8.62301 8.33681 8.32847 8.64064 8 8.90387C8.28181 8.9668 8.57485 9 8.87563 9H16.8756C19.0848 9 20.8756 7.20914 20.8756 5C20.8756 2.79086 19.0848 1 16.8756 1H8.87563C8.57485 1 8.28181 1.0332 8 1.09613C8.32847 1.35936 8.62301 1.66319 8.876 2H16.8756C18.5325 2 19.8756 3.34315 19.8756 5C19.8756 6.65685 18.5325 8 16.8756 8H8.876Z" fill="black"/>
<circle cx="15.8756" cy="17" r="4.5" transform="rotate(-180 15.8756 17)" stroke="black"/>
<path fill-rule="evenodd" clip-rule="evenodd" d="M11.9996 14C12.2526 13.6632 12.5471 13.3594 12.8756 13.0961C12.5938 13.0332 12.3008 13 12 13L3.99998 13C1.79084 13 -2.35768e-05 14.7909 -2.37699e-05 17C-2.39631e-05 19.2091 1.79084 21 3.99998 21L12 21C12.3008 21 12.5938 20.9668 12.8756 20.9039C12.5471 20.6406 12.2526 20.3368 11.9996 20L3.99998 20C2.34312 20 0.999976 18.6569 0.999976 17C0.999976 15.3431 2.34312 14 3.99998 14L11.9996 14Z" fill="black"/>
</svg>
